<?xml version="1.0" standalone="no"?>
<!DOCTYPE svg PUBLIC "-//W3C//DTD SVG 1.1//EN" "http://www.w3.org/Graphics/SVG/1.1/DTD/svg11.dtd" >
<svg>
<metadata>
Created by FontForge 20110222 at Wed Jun 25 18:48:38 2014
 By Orthosie Webhosting
Copyright (c) 2008 by Jovanny Lemonad. All rights reserved.
</metadata>
<defs>
<font id="NeuchaRegular" horiz-adv-x="500" >
  <font-face 
    font-family="NeuchaRegular"
    font-weight="400"
    font-stretch="normal"
    units-per-em="1000"
    panose-1="2 0 5 6 2 0 0 2 0 3"
    ascent="800"
    descent="-200"
    x-height="501"
    cap-height="714"
    bbox="-98 -289 908.447 931.222"
    underline-thickness="50"
    underline-position="-50"
    unicode-range="U+0020-201E"
  />
<missing-glyph 
 />
    <glyph glyph-name=".notdef" 
 />
    <glyph glyph-name=".null" horiz-adv-x="0" 
 />
    <glyph glyph-name="nonmarkingreturn" horiz-adv-x="333" 
 />
    <glyph glyph-name="space" unicode=" " horiz-adv-x="280" 
 />
    <glyph glyph-name="exclam" unicode="!" horiz-adv-x="197" 
d="M118 168l-44 10q-6 76 -10 159.5t-8.5 191.5t-6.5 160q4 39 34 39q28 0 45 -30q8 -13 9 -28q-3 -52 -7 -229t-12 -273zM133 93q21 -30 18.5 -61t-24 -39.5t-54.5 13.5q-28 40 -16 80q11 35 44 25q15 -4 32 -18z" />
    <glyph glyph-name="quotedbl" unicode="&#x22;" horiz-adv-x="327" 
d="M101 515l-44 10q-4 27 -11.5 79.5t-10.5 78.5q4 39 34 39q28 0 45 -30q8 -13 9 -28q-4 -25 -11 -74.5t-11 -74.5zM273 515l-44 10q-4 26 -11.5 79t-10.5 79q4 39 34 39q28 0 45 -30q8 -13 9 -28q-4 -25 -11.5 -74.5t-10.5 -74.5z" />
    <glyph glyph-name="numbersign" unicode="#" horiz-adv-x="664" 
d="M40 237l-10 44q22 1 66.5 3t66.5 3q7 23 20 68.5t19 67.5q-15 0 -45.5 0.5t-45.5 1.5q-22 4 -37 22t-11.5 38t29.5 28q67 -8 133 -12q46 157 63 198l60 1q-31 -80 -65 -203q56 -4 168 -10q51 175 68 215l60 1q-30 -75 -69 -219q20 -2 59 -4.5t59 -3.5l10 -44
q-48 -4 -144 -8q-5 -21 -16 -62.5t-17 -61.5q10 0 31 1t31 2q37 -3 53 -35q15 -30 -10 -46q-10 -6 -24 -7q-66 2 -101 4q-41 -159 -57 -211q-10 -3 -19.5 -4t-21 -0.5t-30.5 -0.5q4 11 63 219q-27 1 -81.5 3.5t-81.5 3.5q-54 -205 -60 -224q-10 -3 -19.5 -4t-21 -0.5
t-30.5 -0.5q5 14 66 232q-18 1 -54 2.5t-54 2.5zM263 422q-20 -73 -35 -132q29 1 85.5 3.5t83.5 3.5q11 42 35 126q-57 -1 -169 -1z" />
    <glyph glyph-name="dollar" unicode="$" horiz-adv-x="448" 
d="M198 810l44 -10q1 -10 2.5 -29t2.5 -29q73 -15 162 -56l-12 -40q-85 28 -145 36q9 -136 15 -273q52 -20 92.5 -62.5t58.5 -93.5t18 -101t-27 -91t-77 -58q-19 -6 -55 -8q0 -7 0.5 -20t0.5 -19q-8 -26 -28 -29.5t-38 11.5t-22 37q0 8 2 26q-52 8 -98.5 23t-67.5 32l14 54
q81 -42 155 -45q5 108 7 285q-68 18 -114.5 56.5t-63.5 85t-13.5 94t33.5 89t80 65.5q30 14 75 9q0 11 -0.5 31t-0.5 30zM163 677q-48 -20 -62 -67.5t13 -99.5t89 -80q0 90 -2 254q-20 0 -38 -7zM307 87q54 28 39.5 107t-76.5 126q3 -124 6 -246q25 10 31 13z" />
    <glyph glyph-name="ampersand" unicode="&#x26;" horiz-adv-x="525" 
d="M416 522l49 -3q3 -20 4.5 -39.5t3.5 -46t4 -45.5q7 0 27.5 1t27.5 2q14 -31 13 -68h-61q14 -132 -45 -220.5t-195 -102.5q-31 0 -65.5 8.5t-73 28.5t-65.5 61.5t-32 99.5q-1 55 21 102.5t66 73.5q-80 61 -71 152q14 56 46.5 91.5t68.5 47.5t77 13.5t67 -3.5t42 -11
l-15 -37q-46 4 -89.5 2.5t-79 -26t-43.5 -70.5q-8 -47 16 -85t72 -52q27 -8 60.5 -11.5t56 -3.5t64.5 1.5t57 1.5q-7 59 -8 138zM422 322l-248 11q-90 -66 -82 -136q6 -49 52.5 -87.5t92.5 -40.5q59 -2 107.5 41t69 102.5t8.5 109.5z" />
    <glyph glyph-name="quotesingle" unicode="'" horiz-adv-x="161" 
d="M101 515l-44 10q-4 27 -11.5 79.5t-10.5 78.5q4 39 34 39q28 0 45 -30q8 -13 9 -28q-4 -25 -11 -74.5t-11 -74.5z" />
    <glyph glyph-name="parenleft" unicode="(" horiz-adv-x="262" 
d="M126 744l43 -13q-24 -110 -35.5 -193.5t-16.5 -137t2.5 -117t14 -96.5t26 -115t31.5 -136q0 -29 -14.5 -39.5t-32 -2t-26.5 29.5q-6 28 -16 78q-19 89 -26.5 129t-15.5 104.5t-6.5 106t8.5 106.5t22.5 133.5t41.5 162.5z" />
    <glyph glyph-name="parenright" unicode=")" horiz-adv-x="242" 
d="M68 731l43 13q19 -70 33 -125t21.5 -109.5t13.5 -87t4 -84.5t-2.5 -73t-10.5 -81.5t-14.5 -82t-20.5 -99.5q-10 -50 -16 -78q-9 -21 -26.5 -29.5t-32 2t-14.5 39.5q12 54 31.5 136t26 115t14 96.5t2.5 117t-16.5 137t-35.5 193.5z" />
    <glyph glyph-name="asterisk" unicode="*" horiz-adv-x="491" 
d="M87 702l31 26q14 -13 49.5 -47t49.5 -47q1 15 -3.5 60t-1.5 65l44 -10q2 -12 -3.5 -49t-4.5 -47q9 9 31 33.5t41 44t34 29.5l28 -38q-5 -6 -47.5 -48t-59.5 -61q15 1 56 7.5t54 7.5q9 -16 14 -31t8.5 -31t4.5 -21q-15 1 -64.5 9t-63.5 9q16 -15 63 -51t62 -49
q-10 -9 -18.5 -15t-13.5 -8.5t-15 -8t-19 -10.5q-14 14 -43.5 57.5t-42.5 57.5q1 -7 9 -57.5t8 -57.5q-48 2 -82 8q1 7 4.5 61t3.5 60q-8 -9 -38 -63t-49 -66q-14 6 -20.5 14t-16.5 27.5t-20 34.5q49 25 92 63q-11 1 -43.5 8t-38.5 8l-10 44q13 2 60.5 -2.5t57.5 -4.5
q-9 10 -42 41.5t-45 47.5z" />
    <glyph glyph-name="plus" unicode="+" horiz-adv-x="497" 
d="M193 638l44 -10q2 -22 9 -97t9 -92q29 1 85.5 4t84.5 5q37 -3 53 -35q15 -30 -10 -46q-10 -6 -24 -7q-118 6 -182 10q14 -138 19 -211q-8 -26 -28 -29.5t-38 11.5t-22 37q3 81 -1 195q-55 3 -163 9l-10 44l171 9q-3 116 3 203z" />
    <glyph glyph-name="comma" unicode="," horiz-adv-x="209" 
d="M42 -117l-1 31q43 15 59.5 35.5t6.5 53.5q-12 -3 -23 -1.5t-17 13.5q-28 40 -16 80q11 35 44 25q15 -4 32 -18q33 -48 38 -96.5t-26.5 -84t-96.5 -38.5z" />
    <glyph glyph-name="hyphen" unicode="-" 
d="M99 421l-10 44q41 4 122.5 11.5t122.5 10.5q37 -3 53 -35q15 -30 -10 -46q-10 -6 -24 -7q-42 4 -127 11.5t-127 10.5z" />
    <glyph glyph-name="period" unicode="." horiz-adv-x="209" 
d="M127 102q21 -30 18.5 -61t-24 -39.5t-54.5 13.5q-28 40 -16 80q11 35 44 25q15 -4 32 -18z" />
    <glyph glyph-name="slash" unicode="/" horiz-adv-x="446" 
d="M399 826l44 -16q-37 -127 -183 -447t-184 -448q-13 -16 -31.5 -17t-30.5 10.5t-18.5 28t4.5 35.5q12 51 195 427t204 427z" />
    <glyph glyph-name="zero" unicode="0" horiz-adv-x="460" 
d="M18 331q1 207 55 299.5t163 98.5q48 3 85 -22.5t59 -65.5t36.5 -95.5t20 -104.5t7.5 -102q3 -77 -20 -162t-71 -148t-108 -62q-229 4 -227 364zM222 653q-27 -5 -47 -17.5t-32.5 -33t-20.5 -40.5t-12 -52t-6 -54.5t-3.5 -61.5t-3.5 -60q-1 -45 3.5 -87t16 -89t38.5 -77.5
t67 -34.5q47 -5 84.5 45t53 116.5t9.5 118.5q-2 18 -5 57t-5.5 63.5t-8.5 59.5t-15.5 57.5t-24 44.5t-37 33t-51.5 12z" />
    <glyph glyph-name="one" unicode="1" horiz-adv-x="409" 
d="M76 3v52q24 3 59 9.5t53 9.5q3 90 1.5 288.5t2.5 288.5q-89 -51 -130 -82l-31 33q15 13 53.5 44.5t68.5 57t47 42.5q15 -2 32 -2.5t32 -2.5q6 -109 6 -348t3 -325q86 -14 95 -15l16 -52h-85h-96.5t-94 0.5t-32.5 1.5z" />
    <glyph glyph-name="two" unicode="2" horiz-adv-x="440" 
d="M388 67l30 -64q-73 -2 -229 -2.5t-166 -0.5q1 6 0 28.5t-1 30.5q13 14 56.5 60.5t62 67.5t55 67t57.5 81t46 87t43 106q22 68 -25 110q-43 38 -103 22q-74 -19 -107 -110q-9 -23 -14 -50l-44 16q4 116 92 170q73 45 155 23q80 -22 106 -96q15 -43 7 -97
q-18 -87 -111 -223.5t-180 -224.5q40 -2 135 0t135 -1z" />
    <glyph glyph-name="three" unicode="3" horiz-adv-x="440" 
d="M40 31l8 45l37.5 -7.5t50 -9t45 -5.5t45.5 -1.5t28 8.5q45 29 63 73t7.5 87.5t-38 81t-77.5 58.5t-107 16q0 13 -1.5 25t1.5 23q47 -4 94 6t81 31.5t52 50.5t7 67t-54 76q-11 10 -37.5 12t-50 0t-60 -7t-47.5 -6l-16 44q2 0 21.5 6t25 7.5t24.5 6.5t27.5 6t26 4t28.5 2.5
t25 -1t26.5 -3.5t23.5 -8q44 -19 70 -72t27.5 -108t-27.5 -98.5t-85 -44.5q43 -7 73 -44.5t40 -89t5.5 -104.5t-30.5 -97t-67 -60q-47 -13 -132 -1.5t-133 31.5z" />
    <glyph glyph-name="four" unicode="4" horiz-adv-x="474" 
d="M446 284l10 -44q-48 -6 -72 -8q2 -45 5.5 -113t4.5 -112q-8 -26 -28 -29.5t-38 11.5t-22 37q1 33 7 200q-42 -4 -135.5 0.5t-131.5 2.5q1 9 1 71q165 277 264 407q27 2 83 -13q-2 -46 -5.5 -198.5t-6.5 -206.5q19 -1 64 -5zM118 297q33 -1 98.5 -3t98.5 -3q3 63 10 330
q-40 -41 -115 -170.5t-92 -153.5z" />
    <glyph glyph-name="five" unicode="5" horiz-adv-x="452" 
d="M405 693l10 -44q-43 -8 -112.5 -8t-113.5 -3q-19 -136 -38 -239q85 20 152 -18.5t101 -111.5q19 -41 20 -83.5t-15 -77.5t-43.5 -64t-67.5 -45t-84 -20t-96 11t-101 49q5 5 10.5 16t8.5 20t8.5 17.5t11.5 9t17 -5.5q108 -82 190 -34q57 32 72 104q15 77 -30 127
q-52 56 -158 37q-19 10 -42.5 21t-39.5 19q23 88 37.5 176t38.5 157q34 -3 126 -3t138 -7z" />
    <glyph glyph-name="six" unicode="6" horiz-adv-x="446" 
d="M388 707l16 -44q-121 -64 -165 -99q-88 -70 -106 -163q44 30 84.5 25.5t76 -28.5t61 -65.5t40 -86.5t14 -91t-17.5 -78q-35 -65 -97 -88.5t-118.5 -7.5t-97.5 68t-38 124q2 53 4.5 86.5t9 81t17 79t27.5 70.5t42.5 67.5t60 57.5t81.5 51.5t106 40.5zM111 180
q-2 -58 24 -95.5t62 -44.5t73.5 14.5t56.5 68.5q16 29 1 88.5t-54 107t-82 41.5q-20 0 -34 -5t-23 -18t-14 -24.5t-7 -36t-2.5 -39.5t-0.5 -47v-10z" />
    <glyph glyph-name="seven" unicode="7" horiz-adv-x="445" 
d="M154 -8l-76 23q53 128 117.5 288t146.5 358q-227 7 -309 14l-10 44q68 8 206.5 8t192.5 4q-1 -14 -2 -37.5t-3 -47.5q-218 -540 -263 -654z" />
    <glyph glyph-name="eight" unicode="8" horiz-adv-x="466" 
d="M353 3q-97 -26 -213 -6q-41 16 -68 61t-32 99t3.5 107t38.5 91t72 45q-56 1 -85 44.5t-27.5 98.5t27.5 108t70 72q38 16 103.5 15t104.5 -17q44 -19 70 -72t27.5 -108t-27.5 -98.5t-85 -44.5q43 -7 73 -44.5t40 -89t5.5 -104.5t-30.5 -97t-67 -60zM310 69q59 43 69 109
t-31.5 116.5t-115.5 51.5q-99 -29 -115 -112.5t45 -141t148 -23.5zM253 685q-89 -7 -121 -72t2 -125.5t105 -57.5q66 1 99.5 37.5t31.5 81t-34 85.5t-83 51z" />
    <glyph glyph-name="nine" unicode="9" horiz-adv-x="446" 
d="M60 -19l-16 44q121 64 165 99q88 70 106 163q-44 -30 -84.5 -25.5t-76 28.5t-61 65.5t-40 86.5t-14 91t17.5 78q35 65 97 88.5t118.5 7.5t97.5 -68t38 -124q-2 -53 -4.5 -86.5t-9 -81t-17 -79t-27.5 -70.5t-42.5 -67.5t-60 -57.5t-81.5 -51.5t-106 -40.5zM337 508
q2 58 -24 95.5t-62 44.5t-73.5 -14.5t-56.5 -68.5q-16 -29 -1 -88.5t54 -107t82 -41.5q20 0 34 5t23 18t14 24.5t7 36t2.5 39.5t0.5 47v10z" />
    <glyph glyph-name="colon" unicode=":" horiz-adv-x="209" 
d="M133 189q21 -30 18.5 -61t-24 -39.5t-54.5 13.5q-28 40 -16 80q11 35 44 25q15 -4 32 -18zM133 565q21 -30 18.5 -61t-24 -39.5t-54.5 13.5q-28 40 -16 80q11 35 44 25q15 -4 32 -18z" />
    <glyph glyph-name="semicolon" unicode=";" horiz-adv-x="209" 
d="M133 565q21 -30 18.5 -61t-24 -39.5t-54.5 13.5q-28 40 -16 80q11 35 44 25q15 -4 32 -18zM48 -30l-1 31q43 15 59.5 35.5t6.5 53.5q-12 -3 -23 -1.5t-17 13.5q-28 40 -16 80q11 35 44 25q15 -4 32 -18q33 -48 38 -96.5t-26.5 -84t-96.5 -38.5z" />
    <glyph glyph-name="less" unicode="&#x3c;" horiz-adv-x="621" 
d="M593 111l3 -63q-137 45 -203 68.5t-174 71.5t-210 108q0 39 8 74q116 34 292.5 112.5t277.5 110.5l15 -56q-55 -23 -226 -105.5t-269 -114.5q55 -41 242.5 -116t243.5 -90z" />
    <glyph glyph-name="equal" unicode="=" horiz-adv-x="604" 
d="M26 457l-10 44q92 7 260 11.5t222 7.5q37 -3 53 -35q15 -30 -10 -46q-10 -6 -24 -7q-49 2 -153.5 6.5t-184.5 8.5t-153 10zM11 190l-10 44q97 8 497 27q37 -3 53 -35q15 -30 -10 -46q-10 -6 -24 -7q-62 3 -236.5 6.5t-269.5 10.5z" />
    <glyph glyph-name="greater" unicode="&#x3e;" horiz-adv-x="621" 
d="M14 48l3 63q56 15 243.5 90t242.5 116q-98 32 -269 114.5t-226 105.5l15 56q101 -32 277.5 -110.5t292.5 -112.5q8 -35 8 -74q-102 -60 -210 -108t-174 -71.5t-203 -68.5z" />
    <glyph glyph-name="question" unicode="?" 
d="M132 504l-44 10q-44 113 32 167q61 43 156 26q96 -18 140 -82q15 -22 21 -48q16 -56 11 -98.5t-21.5 -65.5t-40.5 -46.5t-46.5 -42t-40 -51t-20.5 -73.5q-8 -26 -28 -29.5t-38 11.5t-22 37q-3 46 16 80.5t48.5 57.5t59 45t49.5 55.5t18 76.5q-3 65 -73 98q-65 31 -126 11
q-66 -22 -62 -89q1 -23 11 -50zM272 98q21 -30 18.5 -61t-24 -39.5t-54.5 13.5q-28 40 -16 80q11 35 44 25q15 -4 32 -18z" />
    <glyph glyph-name="at" unicode="@" horiz-adv-x="762" 
d="M390 445q12 -18 16.5 -47t4 -51t-3 -53t-2.5 -38q57 -59 111 -34t90 99.5t22 129.5q-2 82 -50 142t-118 77.5t-144 3.5t-136.5 -82.5t-86.5 -176.5q-15 -76 -7 -138t39 -107t75.5 -75.5t103 -42.5t120.5 -8t129 27t128 63q32 19 61.5 -4t10.5 -57q-82 -61 -175 -91.5
t-179 -29t-163 35t-130 92.5t-76.5 151.5t-5.5 204.5q10 70 41.5 129t75 100t97.5 65.5t109.5 30t110.5 -11t101 -52.5t80.5 -100t48.5 -149q-10 -92 -37.5 -155.5t-61 -91.5t-73 -36t-73.5 2.5t-61 31.5q-25 -23 -57.5 -27.5t-65 13.5t-54.5 57q-41 55 -20 133t77.5 103
t127.5 -33zM362 252q5 16 2.5 46.5t-8 60.5t-25 49t-48.5 12q-64 -30 -54 -99q8 -53 47 -83q44 -34 77 2q5 5 9 12z" />
    <glyph glyph-name="A" unicode="A" horiz-adv-x="534" 
d="M231 708l74 -5q28 -121 112 -342.5t112 -330.5q2 -32 -13.5 -47.5t-34 -6t-24.5 36.5q-10 46 -58 172q-162 21 -252 31q-13 -35 -32 -114.5t-29 -109.5q-26 -30 -56.5 -10.5t-26.5 55.5q31 114 113.5 335.5t114.5 335.5zM265 609q-20 -115 -109 -346q23 0 75 0.5
t88.5 -0.5t70.5 -5q-101 215 -125 351z" />
    <glyph glyph-name="B" unicode="B" horiz-adv-x="451" 
d="M28 25l5 688q8 25 48 32t77.5 1.5t62.5 -13.5q62 -20 104.5 -57t48.5 -93q5 -49 -18.5 -98.5t-59.5 -63.5q47 -5 90.5 -74.5t45.5 -134.5q9 -58 -23 -104.5t-85.5 -70.5t-113 -35t-110.5 -4.5t-72 27.5zM108 363q1 -39 -0.5 -136t-1.5 -130q24 -30 67 -31.5t83 19
t69.5 58.5t29.5 79q0 90 -72 128t-175 13zM106 448q110 -29 164 35q39 48 23.5 112.5t-75.5 86.5q-49 18 -114 -3l-1 1q1 -44 1.5 -84t1 -81.5t0.5 -66.5z" />
    <glyph glyph-name="C" unicode="C" 
d="M454 645l-39 -45q-56 41 -112.5 51.5t-103 -9t-78 -79t-36.5 -150.5q0 -24 -0.5 -61.5t0 -54.5t4.5 -45t14.5 -56t28.5 -64q18 -35 39.5 -57.5t47 -29.5t50 -7.5t58 10.5t59.5 22.5t65 31.5q10 -14 34 -62q-261 -180 -396 16q-152 225 -26 552q22 57 72 83.5t108.5 22
t113.5 -22.5t97 -46z" />
    <glyph glyph-name="D" unicode="D" horiz-adv-x="517" 
d="M37 6l3 705q178 -6 298 -89t145 -237q31 -180 -31 -241q-89 -88 -185 -121.5t-230 -16.5zM102 649l8 -584q207 -6 284 116q35 62 33 130.5t-38.5 133.5t-84.5 115t-104 75.5t-98 13.5z" />
    <glyph glyph-name="E" unicode="E" horiz-adv-x="428" 
d="M395 44l10 -44q-26 1 -117.5 -2.5t-153.5 -4.5t-111 7q10 109 11.5 361t12.5 350q33 -3 176.5 -5t187.5 -9l10 -44q-44 -8 -173 -18.5t-141 -11.5q1 -22 4.5 -91.5t4.5 -114.5q34 -4 121.5 -11.5t110.5 -9.5l10 -44q-204 -19 -241 -20q0 -33 -2 -129t-1 -130
q239 -22 281 -29z" />
    <glyph glyph-name="F" unicode="F" horiz-adv-x="428" 
d="M112 -6l-89 6q10 109 11.5 361t12.5 350q33 -3 176.5 -5t187.5 -9l10 -44q-44 -8 -173 -18.5t-141 -11.5q1 -22 4.5 -91.5t4.5 -114.5q34 -4 121.5 -11.5t110.5 -9.5l10 -44q-204 -19 -241 -20q0 -33 -3 -168.5t-2 -169.5z" />
    <glyph glyph-name="G" unicode="G" horiz-adv-x="511" 
d="M326 225l-10 44q20 3 93.5 9t93.5 10q0 -46 1 -77t0 -74t-6 -159q-24 -19 -52.5 -15.5t-35.5 33.5q-207 -105 -321 60q-152 225 -26 552q22 57 72 83.5t108.5 22t113.5 -22.5t97 -46l-39 -45q-56 41 -112.5 51.5t-103 -9t-78 -79t-36.5 -150.5q0 -24 -0.5 -61.5t0 -54.5
t4.5 -45t14.5 -56t28.5 -64q19 -38 44 -60.5t50.5 -30t58.5 -2.5t62.5 16t68.5 30q2 20 5 61t5 61q-66 12 -100 18z" />
    <glyph glyph-name="H" unicode="H" horiz-adv-x="461" 
d="M342 702l56 12q18 -137 22.5 -381t9.5 -325q-8 -26 -28 -29.5t-38 11.5t-22 37q1 51 1 155v155q-17 -1 -75 -6t-76 -5.5t-77 0.5q2 -59 7 -168t7 -150q-8 -26 -28 -29.5t-38 11.5t-22 37q3 84 5.5 326t9.5 361l44 -10q12 -233 15 -320q75 6 225 20q1 0 1 9.5t0.5 79
t0.5 209.5z" />
    <glyph glyph-name="I" unicode="I" horiz-adv-x="325" 
d="M23 -3l8 48q14 2 48 13.5t54 12.5q2 123 1 181t-4.5 184.5t-4.5 181.5q-17 4 -49.5 10.5t-49.5 9.5l-6 56q37 -1 121.5 -1t129.5 -1l3 -48q-48 -20 -85 -26q5 -95 4 -273.5t2 -273.5q11 -2 50.5 -11.5t54.5 -11.5l8 -51h-285z" />
    <glyph glyph-name="J" unicode="J" horiz-adv-x="410" 
d="M34 96l50 25q31 -42 68.5 -60t66 -16.5t55.5 14.5q18 9 23 135t3 302.5t-1 211.5q10 -4 32.5 -2t38.5 -6q-5 -64 0.5 -243t1 -305t-30.5 -135q-27 -21 -66 -32.5t-84 -11t-88.5 31.5t-68.5 91z" />
    <glyph glyph-name="K" unicode="K" horiz-adv-x="471" 
d="M454 -7h-86q-33 30 -69 69.5t-58 66t-64 78.5t-57 70q2 -36 6.5 -129t6.5 -134q-8 -26 -28 -29.5t-38 11.5t-22 37q3 78 5 324.5t9 363.5l44 -10q3 -48 6.5 -168.5t5.5 -161.5q14 17 46 56t44.5 54.5t38.5 46t41 47.5t37 41.5t43 45.5t43 42l30 -48q-31 -52 -273 -332
q34 -36 141 -168.5t148 -172.5z" />
    <glyph glyph-name="L" unicode="L" horiz-adv-x="468" 
d="M23 700l58 -6q15 -149 29 -615q65 4 165.5 4t161.5 3q6 -16 8.5 -47t5.5 -45q-163 10 -435 8q5 145 5.5 387t1.5 311z" />
    <glyph glyph-name="M" unicode="M" horiz-adv-x="764" 
d="M748 0l-74 -7q-53 329 -117 577q-32 -76 -70.5 -214t-53.5 -179q-14 -2 -53 1.5t-45 3.5q-1 28 -50 188t-59 206q-18 -161 -136 -576l-61 6q13 107 67 335.5t64 352.5q28 4 100 -6q13 -2 39 -88.5t52.5 -190t33.5 -121.5q27 68 66.5 219t54.5 192q14 -1 98 -9
q25 -99 49 -212.5t52 -260t43 -217.5z" />
    <glyph glyph-name="N" unicode="N" 
d="M15 27l13 676h52q85 -167 320 -606q-2 335 11 607l55 -11q11 -212 18 -698q-51 -22 -113 11q-59 91 -146.5 267t-126.5 244q1 -66 1.5 -242t3.5 -267q-8 -26 -28 -29.5t-38 11.5t-22 37z" />
    <glyph glyph-name="O" unicode="O" horiz-adv-x="493" 
d="M38 460l18 144q8 64 63 99t119 32q58 -9 101.5 -37t68 -71t39 -89.5t17.5 -105t1.5 -104t-6.5 -99.5q-3 -36 -6.5 -60.5t-10 -53t-16 -47t-24.5 -36.5t-35 -27.5t-48 -14t-64 -1.5q-134 13 -181 49q-14 11 -24.5 29t-16.5 43t-10 47.5t-4 56v55t3.5 57.5t5 50.5t6 47.5
t4.5 36zM262 651q-24 4 -43.5 4.5t-35 -8t-27.5 -18.5t-20.5 -27t-14.5 -33t-10 -38t-6 -40.5t-3 -41t-1 -40v-36.5v-26q0 -20 -1 -52.5t-1.5 -51t0.5 -46t5 -43t10.5 -35.5t18.5 -30.5t29 -20.5t41 -13.5t55 -1.5q61 3 98 63t42.5 144.5t-7 170t-48 149t-81.5 71.5z" />
    <glyph glyph-name="P" unicode="P" horiz-adv-x="473" 
d="M48 701l44 12q0 -31 1 -35q54 34 148 36.5t145 -38.5q56 -50 74 -150.5t-16.5 -193t-113.5 -117.5q-19 -5 -39.5 -7.5t-49 -1.5t-41.5 2t-49 5.5t-39 4.5q2 -74 8 -222q-8 -26 -28 -29.5t-38 11.5t-22 37q2 82 6 319t10 367zM101 612l8 -304q38 -22 93 -28.5t99 12.5
q84 44 92 143q7 89 -46 158q-58 77 -145 64q-50 -7 -101 -45z" />
    <glyph glyph-name="Q" unicode="Q" horiz-adv-x="493" 
d="M396 -112l10 -44q-83 -9 -126.5 30t-61.5 119q-105 15 -144 45q-14 11 -24.5 29t-16.5 43t-10 47.5t-4 56v55t3.5 57.5t5 50.5t6 47.5t4.5 36l18 144q8 64 63 99t119 32q58 -9 101.5 -37t68 -71t39 -89.5t17.5 -105t1.5 -104t-6.5 -99.5q-4 -46 -9 -76t-15.5 -63
t-26.5 -52.5t-43 -33.5t-64 -16q-9 -43 30 -74t65 -26zM262 651q-24 4 -43.5 4.5t-35 -8t-27.5 -18.5t-20.5 -27t-14.5 -33t-10 -38t-6 -40.5t-3 -41t-1 -40v-36.5v-26q0 -20 -1 -52.5t-1.5 -51t0.5 -46t5 -43t10.5 -35.5t18.5 -30.5t29 -20.5t41 -13.5t55 -1.5q61 3 98 63
t42.5 144.5t-7 170t-48 149t-81.5 71.5z" />
    <glyph glyph-name="R" unicode="R" horiz-adv-x="473" 
d="M485 -16l16 -40q-83 3 -170 86.5t-142 178.5q-45 5 -77 9q2 -74 8 -222q-8 -26 -28 -29.5t-38 11.5t-22 37q2 82 6 319t10 367l44 12q0 -31 1 -35q54 34 148 36.5t145 -38.5q56 -50 74 -150.5t-16.5 -193t-113.5 -117.5q-24 -7 -51 -9q35 -72 92.5 -139.5t113.5 -82.5z
M101 612l8 -304q38 -22 93 -28.5t99 12.5q84 44 92 143q7 89 -46 158q-58 77 -145 64q-50 -7 -101 -45z" />
    <glyph glyph-name="S" unicode="S" horiz-adv-x="448" 
d="M26 56l14 54q152 -80 267 -23q32 16 39.5 55.5t-7 80.5t-48.5 77.5t-76 46.5q-71 16 -121 54.5t-68.5 85.5t-16 95.5t33 91t81.5 66.5q48 23 136.5 -0.5t148.5 -53.5l-12 -40q-56 20 -127.5 33.5t-106.5 -2.5q-40 -17 -56 -55t-6.5 -79t50 -78t103.5 -51
q69 -21 117 -80.5t61.5 -124.5t-11.5 -124.5t-89 -81.5q-56 -18 -160 1.5t-146 51.5z" />
    <glyph glyph-name="T" unicode="T" horiz-adv-x="451" 
d="M25 655l-10 44q64 4 188.5 11.5t184.5 10.5q37 -3 53 -35q15 -30 -10 -46q-10 -6 -24 -7q-28 1 -82 4t-82 5q22 -310 36 -627q-8 -26 -28 -29.5t-38 11.5t-22 37q3 88 1 305.5t4 305.5q-57 4 -171 10z" />
    <glyph glyph-name="U" unicode="U" horiz-adv-x="488" 
d="M398 725l58 -5q21 -274 1 -633q-11 -37 -46.5 -64t-80.5 -40t-96 -12.5t-93.5 13.5t-72 42.5t-32.5 71.5q-18 252 -7 620l54 -12q6 -92 13 -283t14 -292q3 -46 41.5 -68.5t83.5 -20t84.5 18t46.5 37.5q18 59 24 161t6 253.5t2 212.5z" />
    <glyph glyph-name="V" unicode="V" horiz-adv-x="464" 
d="M390 703l59 -3q-1 -3 -76.5 -316t-102.5 -383q-24 -5 -81 5q-18 54 -44.5 165.5t-46 202t-43.5 208t-25 122.5l56 -1q43 -197 140 -576q152 552 164 576z" />
    <glyph glyph-name="W" unicode="W" horiz-adv-x="714" 
d="M638 703l59 -3q-1 -3 -76.5 -316t-102.5 -383q-24 -5 -81 5q-29 88 -80 316q-60 -247 -87 -321q-24 -5 -81 5q-18 54 -44.5 165.5t-46 202t-43.5 208t-25 122.5l56 -1q43 -197 140 -576q12 41 28 100t37 136.5t32 119.5q-17 80 -45 221l56 -1q43 -197 140 -576
q152 552 164 576z" />
    <glyph glyph-name="X" unicode="X" horiz-adv-x="520" 
d="M23 -9l-42 22q25 60 58.5 117.5t89.5 143t71 109.5q-27 43 -102 150t-111 167l41 19q78 -91 208 -279q5 18 85.5 129.5t92.5 132.5q21 36 53 20.5t34 -52.5q-5 -6 -100.5 -139t-119.5 -161q38 -58 130.5 -183t114.5 -161q2 -28 -14.5 -38t-37.5 -1t-32 29
q-43 67 -105.5 158t-94.5 140q-31 -48 -107 -156t-112 -167z" />
    <glyph glyph-name="Y" unicode="Y" horiz-adv-x="476" 
d="M411 706l54 -17q-8 -16 -43.5 -93t-76.5 -158t-80 -142q4 -47 5 -148t4 -145q-14 -2 -45 -2t-41 2q3 42 4.5 144t5.5 149q-48 81 -108 225.5t-78 180.5l66 5q25 -53 55 -119t52.5 -115t46.5 -98q14 26 78.5 152.5t100.5 178.5z" />
    <glyph glyph-name="Z" unicode="Z" horiz-adv-x="482" 
d="M435 59l2 -60q-53 -4 -206.5 -0.5t-206.5 0.5q-1 22 6 53q3 27 67 136t156.5 256t115.5 187q-13 1 -149 5t-200 10v53q55 0 132.5 1t171.5 3t133 3q0 -36 -2 -77q-102 -178 -306 -558q43 -3 143 -6.5t143 -5.5z" />
    <glyph glyph-name="bracketleft" unicode="[" horiz-adv-x="367" 
d="M99 -88l-23 884q19 -3 93.5 -4t97.5 -8l10 -44q-78 -20 -144 -20q2 -40 15 -333.5t16 -411.5q12 -2 65.5 -4.5t72.5 -7.5l6 -45q-52 1 -69 0.5t-66 -3t-74 -3.5z" />
    <glyph glyph-name="backslash" unicode="\" horiz-adv-x="398" 
d="M-31 805l79 -8q295 -665 422 -884q-25 -10 -53 -9t-33 9q-71 106 -206 395.5t-209 496.5z" />
    <glyph glyph-name="bracketright" unicode="]" horiz-adv-x="336" 
d="M277 796l-23 -884q-25 1 -74 3.5t-66 3t-69 -0.5l6 45q19 5 72.5 7.5t65.5 4.5q3 118 16 411.5t15 333.5q-66 0 -144 20l10 44q23 7 97.5 8t93.5 4z" />
    <glyph glyph-name="asciicircum" unicode="^" 
d="M470 331l-64 1q-23 26 -82 137.5t-78 137.5q-21 -42 -82 -136.5t-94 -122.5l-42 22q28 60 84 161t97 163q5 8 22.5 15t37.5 3.5t27 -23.5q16 -51 43.5 -109t72 -139.5t58.5 -109.5z" />
    <glyph glyph-name="underscore" unicode="_" horiz-adv-x="601" 
d="M36 15l-10 44q132 11 495 31q37 -3 53 -35q15 -30 -10 -46q-10 -6 -24 -7q-67 3 -239 5t-265 8z" />
    <glyph glyph-name="grave" unicode="`" horiz-adv-x="323" 
d="M257 522l-41 -25q-24 10 -46.5 45.5t-45.5 84.5t-32 64q-9 45 23 51.5t56 -27.5q7 -31 27 -74t38.5 -78t20.5 -41z" />
    <glyph glyph-name="a" unicode="a" horiz-adv-x="373" 
d="M59 422l-19 50q48 48 125 54t120 -42q33 -39 47.5 -105.5t13.5 -123t-5 -134t-3 -108.5q-11 -40 -41 -29q-26 10 -35 40q-4 13 -1 25q-40 -39 -86 -53t-92 4q-56 25 -72 75.5t2 102t56 96.5t81 64q47 20 110 16q-5 65 -18 78q-63 78 -183 -10zM263 116q4 115 0 186
q-71 3 -125 -43t-65 -116q-8 -48 24.5 -71.5t68.5 -6.5q62 26 97 51z" />
    <glyph glyph-name="b" unicode="b" horiz-adv-x="414" 
d="M91 -19l-44 -10q-3 125 -11 385.5t-11 385.5q27 14 74 23q-5 -135 7 -280q41 24 91 27t94.5 -21t62.5 -72q20 -51 29.5 -112.5t2.5 -127.5t-34 -109q-42 -69 -109 -87.5t-151 28.5q-1 -10 -1 -30zM103 390l-3 -315q10 -29 79 -36.5t90 14.5q33 30 42.5 92.5t1.5 121
t-25 105.5q-16 46 -55 62t-76.5 2.5t-53.5 -46.5z" />
    <glyph glyph-name="c" unicode="c" horiz-adv-x="376" 
d="M343 484l-5 -42q-136 22 -194 -41q-45 -73 -58.5 -152.5t14.5 -167.5q16 -38 65.5 -43.5t128.5 15.5q28 14 42.5 6.5t18.5 -53.5q-61 -20 -126 -26t-124 14t-74 69q-17 52 -18.5 129.5t20 158.5t65.5 122q31 29 115.5 33.5t129.5 -22.5z" />
    <glyph glyph-name="d" unicode="d" horiz-adv-x="414" 
d="M360 -25l-44 10q0 20 -1 30q-84 -47 -151 -28.5t-109 87.5q-27 43 -34 109t2.5 127.5t29.5 112.5q18 48 62.5 72t94.5 21t91 -27q12 145 7 280q47 -9 74 -23q-3 -125 -10.5 -385.5t-11.5 -385.5zM307 79l-3 315q-16 33 -53.5 46.5t-76.5 -2.5t-55 -62q-17 -47 -25 -105.5
t1.5 -121t42.5 -92.5q21 -22 90 -14.5t79 36.5z" />
    <glyph glyph-name="e" unicode="e" horiz-adv-x="424" 
d="M415 95l9 -43q-39 -16 -124 -34.5t-128 -19.5q-52 -1 -89 45.5t-49 104.5q-39 198 43 307q26 35 115.5 51t137.5 -23q40 -39 44.5 -83.5t-30.5 -81.5q-42 -28 -123 -50.5t-141 -24.5q5 -118 54 -162q13 -12 58 -12.5t89.5 6t88 13.5t45.5 7zM84 304q130 38 217 80
q-10 48 -33 57.5t-90 -14.5q-87 -37 -94 -123z" />
    <glyph glyph-name="f" unicode="f" horiz-adv-x="332" 
d="M300 427l9 -45q-20 -3 -68.5 -7t-71.5 -8q0 -251 6 -364q-6 -20 -18 -29.5t-24 -8t-22.5 11.5t-13.5 26q0 29 3.5 159t3.5 201q-6 -1 -37 1t-38 2q-1 10 -1 66q10 -2 37 -5t37 -4q1 21 1 69.5t1 70t4.5 52t11.5 47.5t21 27q31 20 94 15t100 -27l-6 -35q-12 0 -36 2
t-35.5 2t-29.5 -1t-27 -7t-18.5 -16.5t-12.5 -28t-2 -42.5q2 -42 0 -125q15 0 43.5 -1t49.5 -0.5t39 2.5z" />
    <glyph glyph-name="g" unicode="g" horiz-adv-x="397" 
d="M317 504l44 10q0 -4 2 -69t3 -96.5t2 -101t0 -116.5t-3.5 -106t-8 -106t-13.5 -83q-9 -24 -23.5 -41.5t-30.5 -28t-39.5 -16.5t-43 -8t-49.5 -0.5t-51.5 3.5t-55.5 6q-17 2 -25 3q-1 10 -4 24t-2.5 18.5t3.5 23.5q17 -2 51.5 -6.5t52 -6t45.5 -1.5t43 6t34.5 19t29 34.5
t16.5 55.5t8 79q-41 -24 -91 -27t-94.5 21t-62.5 72q-20 51 -29.5 112.5t-2.5 127.5t34 109q42 69 109 87.5t151 -28.5q1 10 1 30zM305 95l3 315q-10 29 -79 36.5t-90 -14.5q-33 -30 -42.5 -92.5t-1.5 -121t25 -105.5q16 -46 55 -62t76.5 -2.5t53.5 46.5z" />
    <glyph glyph-name="h" unicode="h" horiz-adv-x="419" 
d="M41 703l51 -12q3 -40 4.5 -128t3.5 -121q51 54 120 56.5t119.5 -45t50.5 -127.5v-321q-23 -11 -72 -2q2 58 -2 170t-3 165q-8 49 -35.5 71.5t-60 19t-62.5 -20.5t-45 -41q3 -61 4 -185t3 -179q-49 -9 -81 2q3 92 0.5 349t4.5 349z" />
    <glyph glyph-name="i" unicode="i" horiz-adv-x="222" 
d="M85 502l44 -10q8 -80 14 -251.5t8 -212.5q-8 -26 -28 -29.5t-38 11.5t-22 37q2 40 8 208t14 247zM142 657q21 -30 18.5 -61t-24 -39.5t-54.5 13.5q-28 40 -16 80q11 35 44 25q15 -4 32 -18z" />
    <glyph glyph-name="j" unicode="j" horiz-adv-x="216" 
d="M-31 -183l-10 26q6 2 20.5 7.5t19 7t15.5 6t14 6.5t10.5 6.5t10.5 8.5t8 9.5t8 12t7 14.5t7 18q12 109 15.5 189t2 183.5t-0.5 156.5q3 31 20.5 40t34.5 -6.5t19 -42.5q0 -48 0.5 -105t0 -78.5t-2.5 -68.5t-7.5 -105t-15.5 -157q-3 -30 -13 -52t-21 -33.5t-31.5 -20
t-34 -11t-39.5 -6t-37 -5.5zM153 659q21 -30 18.5 -61t-24 -39.5t-54.5 13.5q-28 40 -16 80q11 35 44 25q15 -4 32 -18z" />
    <glyph glyph-name="k" unicode="k" horiz-adv-x="392" 
d="M390 0l-89 2q-32 32 -95.5 111.5t-89.5 104.5q4 -164 6 -201q-8 -26 -28 -29.5t-38 11.5t-22 37q4 101 4 334.5t3 334.5l59 -13q1 -39 3.5 -160t4.5 -180q4 4 22.5 20t24.5 21.5t23 20t26 21.5t25 19.5t28 20t27.5 17.5t30.5 18t31 15l16 -44q-78 -54 -218 -190
q26 -28 116.5 -138t129.5 -153z" />
    <glyph glyph-name="l" unicode="l" horiz-adv-x="185" 
d="M69 670l44 -10q3 -103 10.5 -314t11.5 -318q-8 -26 -28 -29.5t-38 11.5t-22 37q4 104 11 311.5t11 311.5z" />
    <glyph glyph-name="m" unicode="m" horiz-adv-x="551" 
d="M308 387q5 -74 8 -224.5t3 -159.5q-43 -11 -67 -1q-3 48 -4 120t-2 118.5t-7 94t-22.5 71.5t-44.5 26q-19 1 -32.5 -7.5t-32.5 -33.5l4 -387q-27 -14 -70 -3q3 61 4 242.5t8 267.5l44 -10l3 -50q16 26 38.5 36.5t39.5 9.5t41 -8q37 -10 67 -51q37 81 136 53
q37 -10 61 -44.5t32 -80.5t11.5 -100.5t0 -105t-3 -93.5t2.5 -67q-3 -1 -17 -5t-20.5 -5.5t-20.5 -3.5t-17 2q-7 24 -3 73.5t4.5 113.5t-1.5 121.5t-21 97t-55 40.5q-18 1 -32 -10t-35 -37z" />
    <glyph glyph-name="n" unicode="n" horiz-adv-x="398" 
d="M107 391l4 -387q-27 -14 -70 -3q3 61 4 242.5t8 267.5l44 -10l3 -55q30 31 69 46t79 6q46 -10 75 -56t36.5 -106t11.5 -128t0.5 -121.5t3.5 -85.5q-14 -4 -38.5 -1.5t-38.5 8.5q-8 24 -4 71t3.5 107.5t-4.5 114t-26 91.5t-62 40q-45 2 -61 -6t-37 -35z" />
    <glyph glyph-name="o" unicode="o" horiz-adv-x="407" 
d="M106 491q21 25 63.5 28t74.5 -16q97 -42 128.5 -159t-9.5 -240q-14 -46 -61.5 -91.5t-95.5 -40.5q-40 5 -86 32t-67 60q-35 53 -35 139t25 164t63 124zM184 468q-34 -4 -57.5 -61t-31 -115t-6.5 -96q-1 -37 16 -73t42.5 -57.5t58.5 -18.5t60 39q48 62 55 149.5t-30.5 156
t-106.5 76.5z" />
    <glyph glyph-name="p" unicode="p" horiz-adv-x="398" 
d="M44 514l44 -10q0 -20 1 -30q84 47 151 28.5t109 -87.5q27 -43 34 -109t-2.5 -127.5t-29.5 -112.5q-18 -48 -62.5 -72t-94.5 -21t-91 27q4 -171 7 -254q-8 -26 -28 -29.5t-38 11.5t-22 37q3 125 10.5 374.5t11.5 374.5zM97 410l3 -315q16 -33 53.5 -46.5t76.5 2.5t55 62
q17 47 25 105.5t-1.5 121t-42.5 92.5q-21 22 -90 14.5t-79 -36.5z" />
    <glyph glyph-name="q" unicode="q" horiz-adv-x="395" 
d="M315 504l44 10q4 -125 11.5 -385.5t10.5 -385.5q-27 -14 -74 -23q5 135 -7 280q-41 -24 -91 -27t-94.5 21t-62.5 72q-20 51 -29.5 112.5t-2.5 127.5t34 109q42 69 109 87.5t151 -28.5q1 10 1 30zM303 95l3 315q-10 29 -79 36.5t-90 -14.5q-33 -30 -42.5 -92.5t-1.5 -121
t25 -105.5q16 -46 55 -62t76.5 -2.5t53.5 46.5z" />
    <glyph glyph-name="r" unicode="r" horiz-adv-x="370" 
d="M345 362l-43 3q-13 34 -34 47.5t-52 5.5t-47.5 -15.5t-50.5 -26.5q-7 -4 -11 -6v-85q0 -85 1 -173.5t3 -95.5q-8 -26 -28 -29.5t-38 11.5t-22 37q21 346 33 474l44 -10q2 -36 3 -55q39 32 101.5 37t107.5 -26t33 -93z" />
    <glyph glyph-name="s" unicode="s" horiz-adv-x="376" 
d="M338 471l-10 -39q-139 60 -215 25q-18 -7 -17 -65t27 -72q7 -4 89.5 -24t109.5 -47q30 -31 33.5 -75t-15.5 -83t-57.5 -69.5t-85.5 -37.5q-55 -1 -103.5 21.5t-76.5 57.5l28 30q15 -6 34 -15t28.5 -13t26 -8t38.5 -5q62 -2 97 43.5t2 115.5q-6 12 -95.5 37t-105.5 39
q-39 34 -36.5 107t43.5 105q17 14 41 19.5t42.5 6t49.5 -8t44 -13t46.5 -18t37.5 -14.5z" />
    <glyph glyph-name="t" unicode="t" horiz-adv-x="420" 
d="M341 473l10 -44q-27 -2 -81.5 -10.5t-81.5 -10.5q1 -20 2.5 -73.5t4 -85t7 -73t13.5 -68t23 -39.5q58 -22 133 2q20 -40 27 -52q-170 -43 -207 -16q-25 18 -38.5 70t-16 102.5t-4 128t-3.5 107.5q-10 -1 -46 -1.5t-42 -0.5q-7 63 -7 68q12 -1 49 0t50 0q5 132 8 174
l44 -10q1 -23 1.5 -50t1 -60t0.5 -51q25 -2 76 -3.5t77 -3.5z" />
    <glyph glyph-name="u" unicode="u" horiz-adv-x="404" 
d="M313 490l47 -9q-1 -60 7.5 -224.5t15.5 -253.5q-30 -12 -72 -3l-8 25q-97 -52 -175 -25q-24 9 -42.5 27.5t-29.5 48t-19 57.5t-10 70t-3.5 70t1.5 73.5t4 65t5.5 59.5t4.5 43l44 -10q0 -15 1 -107.5t5 -155.5t13 -104q9 -33 31 -52t51.5 -21.5t58 2t56.5 15.5
q2 36 4 184.5t10 224.5z" />
    <glyph glyph-name="v" unicode="v" horiz-adv-x="390" 
d="M314 502l65 -9q-18 -78 -58.5 -235t-62.5 -256q-63 -11 -110 -3q-14 51 -46 161t-54.5 191t-39.5 155l64 -5q21 -65 66 -210t61 -196q16 47 34 107t27.5 96.5t29.5 112t24 91.5z" />
    <glyph glyph-name="w" unicode="w" horiz-adv-x="603" 
d="M526 506l65 -9q-18 -78 -58.5 -235t-62.5 -256q-63 -11 -110 -3q-10 36 -29 102t-26 89l-47 -192q-63 -11 -110 -3q-14 51 -46 161t-54.5 191t-39.5 155l64 -5q21 -65 66 -210t61 -196q33 97 68 231q-27 97 -47 184l64 -5q21 -65 66 -210t61 -196q16 47 34 107t27.5 96.5
t29.5 112t24 91.5z" />
    <glyph glyph-name="x" unicode="x" horiz-adv-x="410" 
d="M73 -24l-42 22q25 64 133 246q-60 80 -120 234q-6 15 -9 22l43 1q38 -79 122 -198q15 21 39 63.5t47 73.5t52 55q27 -15 33 -32.5t-5 -41.5q-27 -32 -68 -102.5t-50 -83.5q100 -139 139 -212q2 -28 -14.5 -38t-37.5 -1t-32 29q-18 60 -92 166q-17 -28 -68.5 -99.5
t-69.5 -103.5z" />
    <glyph glyph-name="y" unicode="y" horiz-adv-x="446" 
d="M108 -289l-60 34q40 71 141 264q-42 37 -74.5 99t-51.5 133.5t-30 137t-15 128.5l56 -3q5 -21 21 -107t26 -124.5t34.5 -99t57.5 -101.5q141 271 136 439q49 -8 76 -19q-16 -102 -49 -208t-83.5 -215t-88 -181t-96.5 -177z" />
    <glyph glyph-name="z" unicode="z" horiz-adv-x="444" 
d="M45 465l-13 58q14 0 87.5 2t113.5 2.5t98.5 -1t94.5 -6.5v-47q-42 -76 -151.5 -209t-150.5 -195q34 0 142.5 -1.5t158.5 -0.5q1 -10 3 -26.5t2 -23t-1 -26.5q-22 2 -203.5 2h-203.5q-4 26 0 65q15 29 149 195t151 215q-42 3 -143.5 -0.5t-133.5 -2.5z" />
    <glyph glyph-name="braceleft" unicode="{" horiz-adv-x="393" 
d="M79 330l-1 51q44 29 63.5 76t23 94t9.5 93t34.5 83.5t86.5 54.5l15 -32q-44 -10 -66 -49.5t-26.5 -91t-8 -103t-20.5 -94t-53 -56.5q39 -37 58 -93.5t23 -109t9.5 -102t26.5 -82t64 -38.5l-15 -32q-57 10 -86 47.5t-36 89t-11.5 105.5t-25.5 107t-64 82z" />
    <glyph glyph-name="bar" unicode="|" horiz-adv-x="200" 
d="M77 820l44 -10q4 -75 9.5 -413.5t12.5 -412.5q-8 -26 -28 -29.5t-38 11.5t-22 37q24 627 22 817z" />
    <glyph glyph-name="braceright" unicode="}" horiz-adv-x="393" 
d="M316 381l-1 -51q-43 -29 -64 -82t-25.5 -107t-11.5 -105.5t-36 -89t-86 -47.5l-15 32q43 6 64 38.5t26.5 82t9.5 102t23 109t58 93.5q-36 14 -53 56.5t-20.5 94t-8 103t-26.5 91t-66 49.5l15 32q58 -17 86.5 -54.5t34.5 -83.5t9.5 -93t23 -94t63.5 -76z" />
    <glyph glyph-name="guillemotleft" unicode="&#xab;" horiz-adv-x="635" 
d="M480 146l-14 -30q-174 44 -406 199q-8 17 1 28q74 49 207 131.5t171 102.5l26 -17q-188 -145 -326 -222q115 -88 341 -192zM588 229l-27 -21q-3 1 -80.5 31.5t-125.5 53.5t-76 44q232 124 273 161l22 -20q-120 -100 -203 -138q23 -19 102 -53t115 -58z" />
    <glyph glyph-name="guillemotright" unicode="&#xbb;" horiz-adv-x="635" 
d="M178 116l-14 30q226 104 341 192q-138 77 -326 222l26 17q38 -20 171 -102.5t207 -131.5q9 -11 1 -28q-232 -155 -406 -199zM83 208l-27 21q36 24 115 58t102 53q-83 38 -203 138l22 20q41 -37 273 -161q-28 -21 -76 -44t-125.5 -53.5t-80.5 -31.5z" />
    <glyph glyph-name="afii10023" unicode="&#x401;" horiz-adv-x="428" 
d="M395 44l10 -44q-26 1 -117.5 -2.5t-153.5 -4.5t-111 7q10 109 11.5 361t12.5 350q33 -3 176.5 -5t187.5 -9l10 -44q-44 -8 -173 -18.5t-141 -11.5q1 -22 4.5 -91.5t4.5 -114.5q34 -4 121.5 -11.5t110.5 -9.5l10 -44q-204 -19 -241 -20q0 -33 -2 -129t-1 -130
q239 -22 281 -29zM153 911q21 -30 18.5 -61t-24 -39.5t-54.5 13.5q-28 40 -16 80q11 35 44 25q15 -4 32 -18zM362 911q21 -30 18.5 -61t-24 -39.5t-54.5 13.5q-28 40 -16 80q11 35 44 25q15 -4 32 -18z" />
    <glyph glyph-name="afii10017" unicode="&#x410;" horiz-adv-x="534" 
d="M231 708l74 -5q28 -121 112 -342.5t112 -330.5q2 -32 -13.5 -47.5t-34 -6t-24.5 36.5q-10 46 -58 172q-162 21 -252 31q-13 -35 -32 -114.5t-29 -109.5q-26 -30 -56.5 -10.5t-26.5 55.5q31 114 113.5 335.5t114.5 335.5zM265 609q-20 -115 -109 -346q23 0 75 0.5
t88.5 -0.5t70.5 -5q-101 215 -125 351z" />
    <glyph glyph-name="afii10018" unicode="&#x411;" horiz-adv-x="460" 
d="M378 714l-12 -50q-50 -4 -130 -8t-130 -7q3 -24 1.5 -110t-1.5 -110q138 37 230 -27.5t96 -189.5q9 -58 -23 -104.5t-85.5 -70.5t-113 -35t-110.5 -4.5t-72 27.5q3 85 6 329.5t10 367.5zM107 385q1 -40 0 -148t-1 -140q24 -30 67 -31.5t83 19t69.5 58.5t29.5 79
q0 92 -73.5 139.5t-174.5 23.5z" />
    <glyph glyph-name="afii10019" unicode="&#x412;" horiz-adv-x="451" 
d="M28 25l5 688q8 25 48 32t77.5 1.5t62.5 -13.5q62 -20 104.5 -57t48.5 -93q5 -49 -18.5 -98.5t-59.5 -63.5q47 -5 90.5 -74.5t45.5 -134.5q9 -58 -23 -104.5t-85.5 -70.5t-113 -35t-110.5 -4.5t-72 27.5zM108 363q1 -39 -0.5 -136t-1.5 -130q24 -30 67 -31.5t83 19
t69.5 58.5t29.5 79q0 90 -72 128t-175 13zM106 448q110 -29 164 35q39 48 23.5 112.5t-75.5 86.5q-49 18 -114 -3l-1 1q1 -44 1.5 -84t1 -81.5t0.5 -66.5z" />
    <glyph glyph-name="afii10020" unicode="&#x413;" horiz-adv-x="382" 
d="M388 699l10 -44q-43 -3 -150.5 -9t-150.5 -10q3 -92 4 -310.5t5 -319.5q-8 -26 -28 -29.5t-38 11.5t-22 37q12 125 12.5 378.5t2.5 301.5q45 -4 178 -3t177 -3z" />
    <glyph glyph-name="afii10021" unicode="&#x414;" horiz-adv-x="561" 
d="M542 -105l-44 10q-6 51 -30 101q-139 11 -368 0q-9 -35 -22 -123l-42 4q-23 114 -19 188q1 0 32 0.5t32 0.5q32 64 49 151.5t20 142.5t4 173t2 149q98 8 304 5q3 -90 11 -308t11 -304q15 -2 32 -3t32 -2q-3 -25 -2 -92t-2 -93zM160 82q26 0 74 -1.5t87 -1.5t73 3
q3 91 2 280t2 280q-43 1 -54.5 1.5t-52.5 -2.5t-56 -4q-3 -45 -7 -138.5t-7.5 -145.5t-19 -128.5t-41.5 -142.5z" />
    <glyph glyph-name="afii10022" unicode="&#x415;" horiz-adv-x="428" 
d="M395 44l10 -44q-26 1 -117.5 -2.5t-153.5 -4.5t-111 7q10 109 11.5 361t12.5 350q33 -3 176.5 -5t187.5 -9l10 -44q-44 -8 -173 -18.5t-141 -11.5q1 -22 4.5 -91.5t4.5 -114.5q34 -4 121.5 -11.5t110.5 -9.5l10 -44q-204 -19 -241 -20q0 -33 -2 -129t-1 -130
q239 -22 281 -29z" />
    <glyph glyph-name="afii10024" unicode="&#x416;" horiz-adv-x="890" 
d="M417 446l7 269l44 -10q1 -37 5.5 -129t5.5 -128q37 14 72 64.5t69 110.5t59 83q40 36 189 6l-10 -39q-10 2 -29.5 5.5t-27 4.5t-20.5 0t-25 -6q-30 -11 -52.5 -38t-39 -61t-33.5 -70t-45 -73t-64 -62q43 -40 85 -121.5t73.5 -149t52.5 -79.5q42 -25 133 -2l3 -37
q-105 -31 -166 -3q-36 17 -67.5 58.5t-50 84t-45.5 86.5t-54 63q2 -45 5.5 -139t4.5 -128q-8 -26 -28 -29.5t-38 11.5t-22 37q1 27 0.5 42.5t0 75t1.5 128.5q-27 -19 -54 -63t-45.5 -86.5t-50 -84t-67.5 -58.5q-61 -28 -166 3l3 37q91 -23 133 2q21 12 52.5 79.5t73.5 149
t85 121.5q-36 25 -64 62t-45 73t-33.5 70t-39 61t-52.5 38q-12 5 -25 6t-20.5 0t-27 -4.5t-29.5 -5.5l-10 39q149 30 189 -6q21 -19 47 -60.5t46 -79t49 -72.5t58 -46z" />
    <glyph glyph-name="afii10025" unicode="&#x417;" horiz-adv-x="438" 
d="M69 611l-31 33q53 35 103.5 53.5t108 13.5t98.5 -46q31 -36 42.5 -90t-4.5 -106.5t-58 -77.5q53 -9 78 -68.5t20.5 -131.5t-31.5 -125t-106.5 -69.5t-162.5 14.5t-114 102q5 4 7 8l3 6t5.5 5.5t13.5 8.5q37 -34 82.5 -57.5t90 -28t79 10.5t50.5 63t5 125
q-22 64 -70.5 88.5t-131.5 16.5q-1 4 -4.5 21t-8.5 51q7 1 33.5 1.5t44.5 2.5t41 7t37.5 16.5t20.5 28.5q22 67 5 103.5t-59.5 47t-92.5 3t-94 -29.5z" />
    <glyph glyph-name="afii10026" unicode="&#x418;" horiz-adv-x="473" 
d="M31 716l44 -10q7 -120 22 -536q189 332 262 545q30 26 54 -0.5t25 -70.5q3 -91 5.5 -306.5t7.5 -322.5q-8 -26 -28 -29.5t-38 11.5t-22 37q3 85 3.5 260.5t1.5 237.5q-20 -35 -75 -140t-100 -178.5t-93 -128.5q1 -14 2.5 -40t1.5 -39q-8 -26 -28 -29.5t-38 11.5t-22 37
q3 84 6 326t9 365z" />
    <glyph glyph-name="afii10027" unicode="&#x419;" horiz-adv-x="473" 
d="M31 716l44 -10q7 -120 22 -536q189 332 262 545q30 26 54 -0.5t25 -70.5q3 -91 5.5 -306.5t7.5 -322.5q-8 -26 -28 -29.5t-38 11.5t-22 37q3 85 3.5 260.5t1.5 237.5q-20 -35 -75 -140t-100 -178.5t-93 -128.5q1 -14 2.5 -40t1.5 -39q-8 -26 -28 -29.5t-38 11.5t-22 37
q3 84 6 326t9 365zM121 792l-7 31q98 -12 170 34q37 -2 50.5 -27.5t-21.5 -46.5q-106 -10 -192 9z" />
    <glyph glyph-name="afii10028" unicode="&#x41a;" 
d="M476 21l3 -37q-105 -31 -166 -3q-36 17 -67.5 58.5t-50 84t-45.5 86.5t-54 63q2 -45 5.5 -139t4.5 -128q-8 -26 -28 -29.5t-38 11.5t-22 37q1 20 7 330.5t9 359.5l44 -10q1 -37 5.5 -129t5.5 -128q37 14 72 64.5t69 110.5t59 83q40 36 189 6l-10 -39q-10 2 -29.5 5.5
t-27 4.5t-20.5 0t-25 -6q-30 -11 -52.5 -38t-39 -61t-33.5 -70t-45 -73t-64 -62q43 -40 85 -121.5t73.5 -149t52.5 -79.5q42 -25 133 -2z" />
    <glyph glyph-name="afii10029" unicode="&#x41b;" 
d="M-44 -92l-28 51q47 21 80 47.5t50.5 51t29 59.5t14.5 60t8 65.5t9 64.5q19 103 21.5 195t-4.5 195q37 6 155 3.5t169 2.5q14 -81 11 -330.5t13 -375.5q-8 -26 -28 -29.5t-38 11.5t-22 37q3 94 -1 307.5t0 307.5q-23 2 -80.5 3t-88.5 5q-6 -202 -53 -461q-17 -95 -72 -170
t-145 -100z" />
    <glyph glyph-name="afii10030" unicode="&#x41c;" horiz-adv-x="764" 
d="M748 0l-74 -7q-53 329 -117 577q-32 -76 -70.5 -214t-53.5 -179q-14 -2 -53 1.5t-45 3.5q-1 28 -50 188t-59 206q-18 -161 -136 -576l-61 6q13 107 67 335.5t64 352.5q28 4 100 -6q13 -2 39 -88.5t52.5 -190t33.5 -121.5q27 68 66.5 219t54.5 192q14 -1 98 -9
q25 -99 49 -212.5t52 -260t43 -217.5z" />
    <glyph glyph-name="afii10031" unicode="&#x41d;" horiz-adv-x="461" 
d="M342 702l56 12q18 -137 22.5 -381t9.5 -325q-8 -26 -28 -29.5t-38 11.5t-22 37q1 51 1 155v155q-17 -1 -75 -6t-76 -5.5t-77 0.5q2 -59 7 -168t7 -150q-8 -26 -28 -29.5t-38 11.5t-22 37q3 84 5.5 326t9.5 361l44 -10q12 -233 15 -320q75 6 225 20q1 0 1 9.5t0.5 79
t0.5 209.5z" />
    <glyph glyph-name="afii10032" unicode="&#x41e;" horiz-adv-x="493" 
d="M38 460l18 144q8 64 63 99t119 32q58 -9 101.5 -37t68 -71t39 -89.5t17.5 -105t1.5 -104t-6.5 -99.5q-3 -36 -6.5 -60.5t-10 -53t-16 -47t-24.5 -36.5t-35 -27.5t-48 -14t-64 -1.5q-134 13 -181 49q-14 11 -24.5 29t-16.5 43t-10 47.5t-4 56v55t3.5 57.5t5 50.5t6 47.5
t4.5 36zM262 651q-24 4 -43.5 4.5t-35 -8t-27.5 -18.5t-20.5 -27t-14.5 -33t-10 -38t-6 -40.5t-3 -41t-1 -40v-36.5v-26q0 -20 -1 -52.5t-1.5 -51t0.5 -46t5 -43t10.5 -35.5t18.5 -30.5t29 -20.5t41 -13.5t55 -1.5q61 3 98 63t42.5 144.5t-7 170t-48 149t-81.5 71.5z" />
    <glyph glyph-name="afii10033" unicode="&#x41f;" horiz-adv-x="461" 
d="M56 714h342q18 -137 22.5 -381t9.5 -325q-8 -26 -28 -29.5t-38 11.5t-22 37q1 49 -4.5 312.5t-5.5 305.5q-138 -9 -220 -4q0 -6 7.5 -288t9.5 -345q-8 -26 -28 -29.5t-38 11.5t-22 37q3 84 5.5 326t9.5 361z" />
    <glyph glyph-name="afii10034" unicode="&#x420;" horiz-adv-x="473" 
d="M48 701l44 12q0 -31 1 -35q54 34 148 36.5t145 -38.5q56 -50 74 -150.5t-16.5 -193t-113.5 -117.5q-19 -5 -39.5 -7.5t-49 -1.5t-41.5 2t-49 5.5t-39 4.5q2 -74 8 -222q-8 -26 -28 -29.5t-38 11.5t-22 37q2 82 6 319t10 367zM101 612l8 -304q38 -22 93 -28.5t99 12.5
q84 44 92 143q7 89 -46 158q-58 77 -145 64q-50 -7 -101 -45z" />
    <glyph glyph-name="afii10035" unicode="&#x421;" 
d="M454 645l-39 -45q-56 41 -112.5 51.5t-103 -9t-78 -79t-36.5 -150.5q0 -24 -0.5 -61.5t0 -54.5t4.5 -45t14.5 -56t28.5 -64q18 -35 39.5 -57.5t47 -29.5t50 -7.5t58 10.5t59.5 22.5t65 31.5q10 -14 34 -62q-261 -180 -396 16q-152 225 -26 552q22 57 72 83.5t108.5 22
t113.5 -22.5t97 -46z" />
    <glyph glyph-name="afii10036" unicode="&#x422;" horiz-adv-x="451" 
d="M25 655l-10 44q64 4 188.5 11.5t184.5 10.5q37 -3 53 -35q15 -30 -10 -46q-10 -6 -24 -7q-28 1 -82 4t-82 5q22 -310 36 -627q-8 -26 -28 -29.5t-38 11.5t-22 37q3 88 1 305.5t4 305.5q-57 4 -171 10z" />
    <glyph glyph-name="afii10037" unicode="&#x423;" 
d="M9 666l51 48q44 -72 111.5 -223.5t91.5 -197.5q93 239 147 400q21 35 49 19.5t30 -52.5q-32 -69 -105 -231.5t-123 -264t-106 -195.5l-63 12q63 130 126 248q-31 87 -209 437z" />
    <glyph glyph-name="afii10038" unicode="&#x424;" horiz-adv-x="717" 
d="M315 105q2 65 4.5 236.5t5.5 257.5q-15 -3 -45.5 -8t-41.5 -8t-31 -10t-35.5 -19.5t-34.5 -31.5q-69 -70 -69.5 -185.5t72.5 -183.5q20 -18 84 -37t91 -11zM371 717l4 -70q127 15 232 -64t104 -206q-2 -55 -9.5 -100t-25 -92t-52 -81.5t-84.5 -53.5q-37 -14 -140 -7
v-13.5v-19.5v-13q-8 -26 -28 -29.5t-38 11.5t-22 37l1 27q-102 -7 -139 7q-50 19 -84.5 53.5t-52 81.5t-25 92t-9.5 100q0 82 47 148t122 98.5t154 21.5q2 8 1 37t0 45zM378 598q6 -114 18 -493q58 -1 98 7.5t52 16.5t25 21l3 3q73 68 72.5 183.5t-69.5 185.5
q-24 25 -48.5 38.5t-39 17.5t-52.5 10t-59 10z" />
    <glyph glyph-name="afii10039" unicode="&#x425;" horiz-adv-x="520" 
d="M23 -9l-42 22q25 60 58.5 117.5t89.5 143t71 109.5q-27 43 -102 150t-111 167l41 19q78 -91 208 -279q5 18 85.5 129.5t92.5 132.5q21 36 53 20.5t34 -52.5q-5 -6 -100.5 -139t-119.5 -161q38 -58 130.5 -183t114.5 -161q2 -28 -14.5 -38t-37.5 -1t-32 29
q-43 67 -105.5 158t-94.5 140q-31 -48 -107 -156t-112 -167z" />
    <glyph glyph-name="afii10040" unicode="&#x426;" horiz-adv-x="508" 
d="M488 -111h-45q-10 37 -22 111q-70 -8 -207.5 -8.5t-174.5 5.5q4 106 10.5 360t9.5 359l44 -10q3 -102 8 -324t8 -322q37 0 64.5 -0.5t34 -1.5t24 0t36 4t68.5 11q4 106 13 328t12 315l44 -10q-3 -337 3 -630q12 0 40 -1.5t46 -1.5q-2 -19 -4 -56t-4.5 -67.5t-7.5 -60.5z
" />
    <glyph glyph-name="afii10041" unicode="&#x427;" horiz-adv-x="433" 
d="M342 696l44 -10q4 -49 14 -329t11 -336q-8 -26 -28 -29.5t-38 11.5t-22 37q1 17 6 270q-123 -35 -197 4t-91.5 140.5t9.5 253.5l44 -10q-4 -70 -2.5 -130t17 -104.5t41.5 -69.5t72 -25t109 29q5 203 11 298z" />
    <glyph glyph-name="afii10042" unicode="&#x428;" horiz-adv-x="604" 
d="M532 716l44 -10q-2 -278 2.5 -472.5t3.5 -233.5q-72 -8 -290.5 -11t-257.5 3q3 105 10 359.5t10 359.5l44 -10q3 -102 8 -324t8 -322q26 1 77.5 3.5t76.5 3.5q4 107 13 330.5t12 316.5l44 -10q3 -100 8 -317.5t8 -315.5q49 3 154 7q4 106 13 328t12 315z" />
    <glyph glyph-name="afii10043" unicode="&#x429;" horiz-adv-x="669" 
d="M649 -111h-45q-10 37 -22 111q-72 -8 -290.5 -11t-257.5 3q3 105 10 359.5t10 359.5l44 -10q3 -102 8 -324t8 -322q26 1 77.5 3.5t76.5 3.5q4 107 13 330.5t12 316.5l44 -10q3 -100 8 -317.5t8 -315.5q49 3 154 7q4 106 13 328t12 315l44 -10q-3 -337 3 -630
q11 0 40 -1.5t46 -1.5q-2 -19 -4 -56t-4.5 -67.5t-7.5 -60.5z" />
    <glyph glyph-name="afii10044" unicode="&#x42a;" horiz-adv-x="577" 
d="M-6 655l-14 59q21 1 90.5 2.5t126.5 6.5q8 -130 16 -307q72 10 136 -4t108.5 -44.5t72.5 -74.5t34 -91.5t-13 -97.5t-62 -91q-26 -24 -107 -31t-155 2.5t-84 28.5q3 90 4.5 303t5.5 318q-18 2 -50 6.5t-58.5 8t-50.5 6.5zM218 343q7 -209 10 -278q184 -22 212 12
q41 50 42.5 103.5t-29 93t-93.5 60t-142 9.5z" />
    <glyph glyph-name="afii10045" unicode="&#x42b;" horiz-adv-x="669" 
d="M50 718l44 -10q4 -55 7.5 -166t4.5 -126q72 10 136 -4t108.5 -44.5t72.5 -74.5t34 -91.5t-13 -97.5t-62 -91q-26 -24 -107 -31t-155 2.5t-84 28.5q3 82 5 332t9 373zM111 343q7 -209 10 -278q184 -22 212 12q41 50 42.5 103.5t-29 93t-93.5 60t-142 9.5zM571 711l44 -10
q3 -44 25 -691q-8 -26 -28 -29.5t-38 11.5t-22 37q3 76 7.5 314t11.5 368z" />
    <glyph glyph-name="afii10046" unicode="&#x42c;" horiz-adv-x="470" 
d="M50 718l44 -10q4 -55 7.5 -166t4.5 -126q72 10 136 -4t108.5 -44.5t72.5 -74.5t34 -91.5t-13 -97.5t-62 -91q-26 -24 -107 -31t-155 2.5t-84 28.5q3 82 5 332t9 373zM111 343q7 -209 10 -278q184 -22 212 12q41 50 42.5 103.5t-29 93t-93.5 60t-142 9.5z" />
    <glyph glyph-name="afii10047" unicode="&#x42d;" horiz-adv-x="520" 
d="M419 406q-5 94 -36.5 154.5t-78 81t-103 10t-112.5 -51.5l-39 45q42 28 97 46t113.5 22.5t108.5 -22t72 -83.5q126 -327 -26 -552q-135 -196 -396 -16q24 48 34 62q39 -20 65 -31.5t59.5 -22.5t58 -10.5t50 7.5t47 29.5t39.5 57.5q29 59 38 99.5t9 89.5
q-65 5 -148.5 16.5t-104.5 25.5l7 35q0 1 52.5 3.5t113.5 4t80 0.5z" />
    <glyph glyph-name="afii10048" unicode="&#x42e;" horiz-adv-x="634" 
d="M19 714l44 -10q12 -181 18 -353q19 3 56.5 9t56.5 9q0 13 1 46.5t1.5 49t3.5 44.5t7.5 47.5t13.5 42t22 43.5q28 45 74.5 65.5t94 15t91 -36.5t66.5 -82q52 -118 57.5 -249t-36.5 -251q-16 -48 -67 -79.5t-110 -39t-116 11t-84 62.5q-39 72 -29 228q-50 8 -101 15
q2 -47 5.5 -141t5.5 -140q-8 -26 -28 -29.5t-38 11.5t-22 37q3 82 4.5 318t8.5 356zM255 328q-8 -68 18.5 -171.5t61.5 -107.5q91 -8 147.5 45.5t66.5 142.5q7 43 4.5 103t-11 116.5t-33.5 107t-62 75.5q-36 22 -65 17t-50.5 -33.5t-36.5 -67t-24 -83t-13 -81.5t-3 -63z" />
    <glyph glyph-name="afii10049" unicode="&#x42f;" 
d="M159 684q41 18 138.5 22t171.5 -9q6 -15 7 -74.5t3 -236.5t8 -371q-8 -26 -28 -29.5t-38 11.5t-22 37q4 136 6 274q-8 0 -27 -1t-29 -1q-12 -101 -114 -225t-201 -146l-16 44q176 60 246 327q-79 4 -114 24q-50 30 -72 102.5t-1.5 147t82.5 104.5zM409 370l5 254
q-130 41 -203.5 -0.5t-68.5 -117.5q12 -193 267 -136z" />
    <glyph glyph-name="afii10065" unicode="&#x430;" horiz-adv-x="373" 
d="M59 422l-19 50q48 48 125 54t120 -42q33 -39 47.5 -105.5t13.5 -123t-5 -134t-3 -108.5q-11 -40 -41 -29q-26 10 -35 40q-4 13 -1 25q-40 -39 -86 -53t-92 4q-56 25 -72 75.5t2 102t56 96.5t81 64q47 20 110 16q-5 65 -18 78q-63 78 -183 -10zM263 116q4 115 0 186
q-71 3 -125 -43t-65 -116q-8 -48 24.5 -71.5t68.5 -6.5q62 26 97 51z" />
    <glyph glyph-name="afii10066" unicode="&#x431;" horiz-adv-x="429" 
d="M98 463l48 36q19 8 60.5 9.5t94 -14.5t72.5 -44q33 -41 29 -174.5t-42 -216.5q-23 -51 -57.5 -77.5t-70.5 -25.5t-71 19t-63 55.5t-42 85.5q-21 73 -23 224.5t21 232.5q16 50 61 93t91.5 68t100.5 56.5t79 55.5q5 -6 13 -12.5t14 -17.5t19 -42q-21 -12 -62.5 -32.5
t-74 -36.5t-71.5 -42t-65 -52.5t-43.5 -65t-17.5 -82.5zM310 420q-69 29 -123.5 26.5t-73.5 -33.5t-22.5 -87t3 -105t17.5 -92q5 -41 29.5 -68t53.5 -32.5t57.5 11.5t40.5 56q27 84 34 196t-16 128z" />
    <glyph glyph-name="afii10067" unicode="&#x432;" horiz-adv-x="413" 
d="M47 501l106 25q41 8 86 6.5t85 -22.5q30 -15 36.5 -61.5t-7 -91.5t-37.5 -60q58 -39 72.5 -104.5t-15.5 -126.5q-25 -55 -94.5 -78.5t-142.5 -10.5t-111 54q8 182 13 273v1q1 33 4 98.5t5 97.5zM102 256l9 -198q35 -14 77.5 -10.5t75.5 27.5t53 53t9 67.5t-56 71.5
q-86 2 -168 -11zM92 457q1 -21 3.5 -75t3.5 -75q14 2 44.5 3t49 4t41 14.5t36 39.5t18.5 74q-9 25 -38 29.5t-85.5 -4.5t-72.5 -10z" />
    <glyph glyph-name="afii10068" unicode="&#x433;" horiz-adv-x="363" 
d="M44 501l4 -3l-1 3q39 4 123 13t121 12q37 -3 53 -35q15 -30 -10 -46q-10 -6 -24 -7q-36 3 -109.5 10t-111.5 10q3 -36 19 -343q0 -5 1.5 -21t2 -25t-0.5 -22.5t-5 -23.5t-12 -18q-21 -3 -34.5 -4.5t-21 7.5t-11 17.5t-3.5 24.5t1 28t2.5 28t1.5 26q0 11 5 155t10 214z
" />
    <glyph glyph-name="afii10069" unicode="&#x434;" horiz-adv-x="545" 
d="M71 -98l-44 10q0 14 -3.5 45.5t-4.5 50.5t3 56q6 0 31.5 -1t31.5 0q3 9 23.5 65.5t26.5 88.5q17 84 4 302q54 -3 115.5 -4t100.5 -3t80 -9q3 -66 6.5 -218.5t6.5 -218.5h38t38 1q-1 -39 2 -103.5t-1 -86.5l-44 10q-9 31 -21 95q-63 4 -183.5 13t-183.5 12v-1
q-3 -17 -10.5 -52t-11.5 -52zM163 86q-5 -10 -14 -22h107t107 1q3 64 9.5 192t9.5 192q-13 1 -71.5 3t-89.5 5q-1 -10 -3 -71t-4 -83.5t-8 -69t-16.5 -80.5t-26.5 -67z" />
    <glyph glyph-name="afii10070" unicode="&#x435;" horiz-adv-x="424" 
d="M415 95l9 -43q-39 -16 -124 -34.5t-128 -19.5q-52 -1 -89 45.5t-49 104.5q-39 198 43 307q26 35 115.5 51t137.5 -23q40 -39 44.5 -83.5t-30.5 -81.5q-42 -28 -123 -50.5t-141 -24.5q5 -118 54 -162q13 -12 58 -12.5t89.5 6t88 13.5t45.5 7zM84 304q130 38 217 80
q-10 48 -33 57.5t-90 -14.5q-87 -37 -94 -123z" />
    <glyph glyph-name="afii10072" unicode="&#x436;" horiz-adv-x="628" 
d="M289 318q0 150 9 212l44 -16q8 -38 8.5 -108t1.5 -88q33 6 56 37t34.5 66.5t33 69.5t51 46t87.5 -5l-4 -34q-37 6 -63.5 -13t-41 -51t-26.5 -65.5t-29 -60t-39 -31.5q32 -8 53.5 -38.5t33.5 -67.5t26 -71.5t39 -53.5t62 -10l3 -43q-49 -13 -85.5 9t-57.5 62t-39 80
t-39 64.5t-48 14.5q4 -68 14 -190q-8 -26 -28 -29.5t-38 11.5t-22 37q2 82 2 171q-27 10 -48 -14.5t-39 -64.5t-39 -80t-57.5 -62t-85.5 -9l3 43q37 -9 62 10t39 53.5t26 71.5t33.5 67.5t53.5 38.5q-22 5 -39 31.5t-29 60t-26.5 65.5t-41 51t-63.5 13l-4 34q58 17 88 5.5
t51.5 -45t33 -69t33 -67t51.5 -38.5z" />
    <glyph glyph-name="afii10073" unicode="&#x437;" horiz-adv-x="330" 
d="M103 241l-4 55q22 -1 39.5 1t37.5 9t30.5 26.5t9.5 48.5q-3 18 -8.5 31.5t-15 21.5t-18 13.5t-22 6.5t-22.5 1.5t-23.5 -2.5t-21 -4t-19 -5t-13.5 -4l-18 29q39 35 108 37.5t110 -34.5q30 -31 23 -93t-43 -89q41 -9 62.5 -59.5t15.5 -109t-36 -90.5q-53 -47 -101.5 -54.5
t-113.5 23.5q-26 14 -33.5 33t7 26.5t47.5 -2.5q27 -24 57 -26t52.5 14t39.5 41t17 56t-14 58q-29 49 -130 41z" />
    <glyph glyph-name="afii10074" unicode="&#x438;" horiz-adv-x="457" 
d="M123 81q0 -16 2 -44q-8 -26 -28 -29.5t-38 11.5t-22 37q3 79 7.5 231t6.5 206l45 8q12 -62 14.5 -164t7.5 -156q21 32 107 145t117 169q37 8 48.5 -4.5t13.5 -70.5q3 -63 9.5 -203t9.5 -199q-8 -26 -28 -29.5t-38 11.5t-22 37q1 32 5.5 157.5t7.5 178.5
q-169 -193 -225 -292z" />
    <glyph glyph-name="afii10075" unicode="&#x439;" horiz-adv-x="457" 
d="M123 81q0 -16 2 -44q-8 -26 -28 -29.5t-38 11.5t-22 37q3 79 7.5 231t6.5 206l45 8q12 -62 14.5 -164t7.5 -156q21 32 107 145t117 169q37 8 48.5 -4.5t13.5 -70.5q3 -63 9.5 -203t9.5 -199q-8 -26 -28 -29.5t-38 11.5t-22 37q1 32 5.5 157.5t7.5 178.5
q-169 -193 -225 -292zM126 607l-7 31q98 -12 170 34q37 -2 50.5 -27.5t-21.5 -46.5q-106 -10 -192 9z" />
    <glyph glyph-name="afii10076" unicode="&#x43a;" horiz-adv-x="420" 
d="M397 24l3 -43q-49 -13 -85.5 9t-57.5 62t-39 80t-39 64.5t-48 14.5q4 -68 14 -190q-8 -26 -28 -29.5t-38 11.5t-22 37q4 164 4 247q0 169 9 231l44 -16q8 -38 8.5 -108t1.5 -88q33 6 56 37t34.5 66.5t33 69.5t51 46t87.5 -5l-4 -34q-37 6 -63.5 -13t-41 -51t-26.5 -65.5
t-29 -60t-39 -31.5q32 -8 53.5 -38.5t33.5 -67.5t26 -71.5t39 -53.5t62 -10z" />
    <glyph glyph-name="afii10077" unicode="&#x43b;" horiz-adv-x="382" 
d="M-82 -88l-16 42q33 2 58.5 16t42 35t28 53t17.5 62t9 69t3.5 67t0.5 64.5t1 53.5q0 7 -2 39t0 55t11 33t62.5 13.5t110 2t101.5 0.5q2 -397 10 -515q-6 -19 -19.5 -25.5t-27 -2t-25 17t-14.5 28.5q-2 75 -0.5 223t-0.5 221q-41 -7 -81 -8t-57 -3q-6 -33 -5.5 -90
t-0.5 -89q-2 -43 -5.5 -75t-11 -77.5t-22 -78t-36 -63.5t-55 -48.5t-76.5 -19.5z" />
    <glyph glyph-name="afii10078" unicode="&#x43c;" horiz-adv-x="608" 
d="M435 481l66 6q47 -128 100 -491q-34 -7 -68 1q-13 54 -32.5 190t-33.5 192q-50 -81 -129 -287q-7 -1 -20.5 -3.5t-18.5 -3t-15 -0.5t-21 3q-16 40 -47 128.5t-49 133.5q-92 -234 -117 -356l-38 11q5 74 53.5 259t58.5 236q11 0 26.5 -2.5t23.5 -2.5q26 -44 70 -169
t58 -155q72 206 133 310z" />
    <glyph glyph-name="afii10079" unicode="&#x43d;" horiz-adv-x="435" 
d="M326 495l44 -10q3 -76 10.5 -234t11.5 -239q-8 -26 -28 -29.5t-38 11.5t-22 37q2 55 8 173q-23 1 -93.5 1.5t-109.5 5.5q5 -61 13 -183q-8 -26 -28 -29.5t-38 11.5t-22 37q3 62 1.5 220.5t5.5 220.5l44 -10q13 -139 20 -218q26 -1 75 -5t69 -4t68 3l1 56q2 57 4.5 117
t3.5 68z" />
    <glyph glyph-name="afii10080" unicode="&#x43e;" horiz-adv-x="407" 
d="M106 491q21 25 63.5 28t74.5 -16q97 -42 128.5 -159t-9.5 -240q-14 -46 -61.5 -91.5t-95.5 -40.5q-40 5 -86 32t-67 60q-35 53 -35 139t25 164t63 124zM184 468q-34 -4 -57.5 -61t-31 -115t-6.5 -96q-1 -37 16 -73t42.5 -57.5t58.5 -18.5t60 39q48 62 55 149.5t-30.5 156
t-106.5 76.5z" />
    <glyph glyph-name="afii10081" unicode="&#x43f;" horiz-adv-x="435" 
d="M41 488l329 -3q3 -76 10.5 -234t11.5 -239q-8 -26 -28 -29.5t-38 11.5t-22 37q0 11 5 189t7 212q-23 1 -93.5 1.5t-109.5 5.5q3 -32 5 -207.5t4 -203.5q-8 -26 -28 -29.5t-38 11.5t-22 37q3 62 1.5 220.5t5.5 220.5z" />
    <glyph glyph-name="afii10082" unicode="&#x440;" horiz-adv-x="398" 
d="M44 514l44 -10q0 -20 1 -30q84 47 151 28.5t109 -87.5q27 -43 34 -109t-2.5 -127.5t-29.5 -112.5q-18 -48 -62.5 -72t-94.5 -21t-91 27q4 -171 7 -254q-8 -26 -28 -29.5t-38 11.5t-22 37q3 125 10.5 374.5t11.5 374.5zM97 410l3 -315q16 -33 53.5 -46.5t76.5 2.5t55 62
q17 47 25 105.5t-1.5 121t-42.5 92.5q-21 22 -90 14.5t-79 -36.5z" />
    <glyph glyph-name="afii10083" unicode="&#x441;" horiz-adv-x="376" 
d="M343 484l-5 -42q-136 22 -194 -41q-45 -73 -58.5 -152.5t14.5 -167.5q16 -38 65.5 -43.5t128.5 15.5q28 14 42.5 6.5t18.5 -53.5q-61 -20 -126 -26t-124 14t-74 69q-17 52 -18.5 129.5t20 158.5t65.5 122q31 29 115.5 33.5t129.5 -22.5z" />
    <glyph glyph-name="afii10084" unicode="&#x442;" horiz-adv-x="462" 
d="M21 448l-9 43q138 8 412 22q36 -3 52 -34q15 -29 -10 -45q-9 -5 -24 -7l-183 9q5 -74 5.5 -213.5t3.5 -204.5q-6 -19 -19.5 -25.5t-27 -2t-25 17t-14.5 28.5q16 271 28 403z" />
    <glyph glyph-name="afii10085" unicode="&#x443;" horiz-adv-x="462" 
d="M124 -289l-60 34q40 71 141 264q-42 37 -74.5 99t-51.5 133.5t-30 137t-15 128.5l56 -3q5 -21 21 -107t26 -124.5t34.5 -99t57.5 -101.5q141 271 136 439q49 -8 76 -19q-16 -102 -49 -208t-83.5 -215t-88 -181t-96.5 -177z" />
    <glyph glyph-name="afii10086" unicode="&#x444;" horiz-adv-x="539" 
d="M288 -272l-50 9q-4 86 -4 260q-99 0 -157 53.5t-60 143.5q-2 116 59 208t169 93q-3 61 3 166q29 22 71 0q-7 -126 -6 -169q43 3 84.5 -27t69 -79t43.5 -104.5t10.5 -110.5t-32.5 -90q-31 -41 -86.5 -67t-103.5 -19q-2 -64 -5 -132.5t-5 -134.5zM234 60q0 47 6 127t8 125
t-4 124q-76 14 -127 -68q-47 -75 -41 -169q6 -99 72 -131q36 -17 86 -8zM310 426l-12 -368q60 -2 98 24t49.5 66t6.5 87.5t-24.5 89t-51 70.5t-66.5 31z" />
    <glyph glyph-name="afii10087" unicode="&#x445;" horiz-adv-x="410" 
d="M73 -24l-42 22q25 64 133 246q-60 80 -120 234q-6 15 -9 22l43 1q38 -79 122 -198q15 21 39 63.5t47 73.5t52 55q27 -15 33 -32.5t-5 -41.5q-27 -32 -68 -102.5t-50 -83.5q100 -139 139 -212q2 -28 -14.5 -38t-37.5 -1t-32 29q-18 60 -92 166q-17 -28 -68.5 -99.5
t-69.5 -103.5z" />
    <glyph glyph-name="afii10088" unicode="&#x446;" horiz-adv-x="436" 
d="M19 -3q3 54 4 249t8 271l44 -10q6 -78 9.5 -245.5t4.5 -192.5q19 1 104 -0.5t104 -0.5q3 60 7 213.5t8 226.5l44 -10q4 -76 4.5 -241t0.5 -189h32t41 -1q-1 -27 -4.5 -89.5t-5.5 -99.5l-47 8q-3 17 -10 56.5t-9 54.5q-220 -7 -339 0z" />
    <glyph glyph-name="afii10089" unicode="&#x447;" horiz-adv-x="392" 
d="M298 519l40 12q11 -36 21 -270.5t14 -252.5q-8 -26 -28 -29.5t-38 11.5t-22 37q2 57 4 169q-56 -16 -98 -11t-72.5 20t-49.5 43.5t-29.5 60.5t-14 71t-1.5 73.5t8 68.5l44 -10q1 -14 3 -40.5t3 -42t4.5 -40t7.5 -38.5t12 -32t18.5 -27t26 -18t35 -10t45.5 3t58 15
q0 23 3.5 82t5.5 104.5t0 50.5z" />
    <glyph glyph-name="afii10090" unicode="&#x448;" horiz-adv-x="543" 
d="M472 508l44 -10q4 -77 3 -250.5t3 -250.5q-62 -3 -244 -2t-254 5q3 56 7 247.5t11 275.5l44 -10q7 -81 10 -248t5 -205q21 2 77.5 2t73.5 1q3 57 1.5 225t5.5 226l44 -10q6 -78 9.5 -245.5t4.5 -192.5q19 1 70 1t70 1q3 60 7 213.5t8 226.5z" />
    <glyph glyph-name="afii10091" unicode="&#x449;" horiz-adv-x="596" 
d="M584 -122l-47 8q-3 17 -10 56.5t-9 54.5q-65 -3 -244 -2t-250 5q3 56 7 247.5t11 275.5l44 -10q7 -81 10 -248t5 -205q21 2 77.5 2t73.5 1q3 57 1.5 225t5.5 226l44 -10q6 -78 9.5 -245.5t4.5 -192.5q19 1 70 1t70 1q3 60 7 213.5t8 226.5l44 -10q4 -76 4.5 -241
t0.5 -189h32t41 -1q-1 -27 -4.5 -89.5t-5.5 -99.5z" />
    <glyph glyph-name="afii10092" unicode="&#x44a;" horiz-adv-x="470" 
d="M-22 442l-10 44q141 6 195 -1q5 -57 17 -169q117 36 200 -33q63 -53 68 -131q5 -85 -64 -132q-29 -20 -69 -29q-29 -4 -72.5 -2.5t-82.5 10.5t-38 20q2 65 -2.5 201t-3.5 196q-18 4 -69 13.5t-69 12.5zM188 256l-8 -196q101 -36 159 16q43 37 35 92q-8 59 -69 82
q-48 18 -117 6z" />
    <glyph glyph-name="afii10093" unicode="&#x44b;" horiz-adv-x="498" 
d="M28 495l44 -10q5 -57 17 -169q117 36 200 -33q63 -53 68 -131q5 -85 -64 -132q-29 -20 -69 -29q-29 -4 -72.5 -2.5t-82.5 10.5t-38 20q2 66 -3.5 238.5t0.5 237.5zM97 256l-8 -196q101 -36 159 16q43 37 35 92q-8 59 -69 82q-48 18 -117 6zM402 498l44 -10
q11 -123 31 -468q-8 -26 -28 -29.5t-38 11.5t-22 37q3 58 4.5 215.5t8.5 243.5z" />
    <glyph glyph-name="afii10094" unicode="&#x44c;" horiz-adv-x="379" 
d="M28 495l44 -10q5 -57 17 -169q117 36 200 -33q63 -53 68 -131q5 -85 -64 -132q-29 -20 -69 -29q-29 -4 -72.5 -2.5t-82.5 10.5t-38 20q2 66 -3.5 238.5t0.5 237.5zM97 256l-8 -196q101 -36 159 16q43 37 35 92q-8 59 -69 82q-48 18 -117 6z" />
    <glyph glyph-name="afii10095" unicode="&#x44d;" horiz-adv-x="373" 
d="M286 196q-111 14 -177 33l3 48q98 -6 165 -9q-14 66 -54 133q-58 63 -194 41l-5 42q45 27 129.5 22.5t115.5 -33.5q44 -41 65.5 -122t20 -158.5t-18.5 -129.5q-15 -49 -74 -69t-124 -14t-126 26q4 46 18.5 53.5t42.5 -6.5q79 -21 128.5 -15.5t65.5 43.5q23 65 19 115z
" />
    <glyph glyph-name="afii10096" unicode="&#x44e;" horiz-adv-x="580" 
d="M118 195l5 -182q-6 -19 -19.5 -25.5t-27 -2t-25 17t-14.5 28.5q14 288 21 431l43 -9q7 -120 10 -200q18 1 46 -1.5t53 -2t46 7.5q14 154 49 193q44 46 90 53t85 -20t69 -81q11 -19 10.5 -73.5t-9 -114t-27 -113t-40.5 -69.5q-26 -19 -64 -30t-75.5 -11t-64.5 21.5
t-29 63.5q-2 41 1 98h-1zM493 346q-3 45 -25 76.5t-53.5 30.5t-56.5 -45t-34.5 -141.5t-7.5 -190.5q51 -25 90.5 -0.5t58 76.5t26 105t2.5 89z" />
    <glyph glyph-name="afii10097" unicode="&#x44f;" horiz-adv-x="431" 
d="M405 507l15 -525q-6 -19 -19.5 -25.5t-27 -2t-25 17t-14.5 28.5q3 70 9 212q-39 -25 -84 -27q-38 -122 -94 -179t-179 -91l-16 42q181 45 208 241q-46 19 -76.5 59t-31.5 93q-2 65 28.5 112.5t98.5 53.5q130 12 208 -9zM351 294l-5 154q-98 15 -137 8q-65 -11 -75 -69
q-6 -44 18.5 -81t61.5 -53.5t77 -7.5t60 49z" />
    <glyph glyph-name="afii10071" unicode="&#x451;" horiz-adv-x="424" 
d="M415 95l9 -43q-39 -16 -124 -34.5t-128 -19.5q-52 -1 -89 45.5t-49 104.5q-39 198 43 307q26 35 115.5 51t137.5 -23q40 -39 44.5 -83.5t-30.5 -81.5q-42 -28 -123 -50.5t-141 -24.5q5 -118 54 -162q13 -12 58 -12.5t89.5 6t88 13.5t45.5 7zM84 304q130 38 217 80
q-10 48 -33 57.5t-90 -14.5q-87 -37 -94 -123zM138 680q21 -30 18.5 -61t-24 -39.5t-54.5 13.5q-28 40 -16 80q11 35 44 25q15 -4 32 -18zM339 680q21 -30 18.5 -61t-24 -39.5t-54.5 13.5q-28 40 -16 80q11 35 44 25q15 -4 32 -18z" />
    <glyph glyph-name="endash" unicode="&#x2013;" horiz-adv-x="669" 
d="M54 395l-7 53q131 2 184 3t133.5 3t221.5 5q28 -2 42.5 -17.5t5.5 -32t-41 -19.5q-128 0 -245.5 2.5t-293.5 2.5z" />
    <glyph glyph-name="emdash" unicode="&#x2014;" horiz-adv-x="934" 
d="M54 395l-7 53q108 1 358 2.5t452 5.5q28 -2 42.5 -17.5t5.5 -32t-41 -19.5q-128 0 -381 4t-429 4z" />
    <glyph glyph-name="quoteright" unicode="&#x2019;" horiz-adv-x="209" 
d="M53 529l-1 31q43 15 59.5 35.5t6.5 53.5q-12 -3 -23 -1.5t-17 13.5q-28 40 -16 80q11 35 44 25q15 -4 32 -18q33 -48 38 -96.5t-26.5 -84t-96.5 -38.5z" />
    <glyph glyph-name="quotesinglbase" unicode="&#x201a;" horiz-adv-x="209" 
d="M42 -117l-1 31q43 15 59.5 35.5t6.5 53.5q-12 -3 -23 -1.5t-17 13.5q-28 40 -16 80q11 35 44 25q15 -4 32 -18q33 -48 38 -96.5t-26.5 -84t-96.5 -38.5z" />
    <glyph glyph-name="quotedblright" unicode="&#x201d;" horiz-adv-x="404" 
d="M39 535l-1 31q43 15 59.5 35.5t6.5 53.5q-12 -3 -23 -1.5t-17 13.5q-28 40 -16 80q11 35 44 25q15 -4 32 -18q33 -48 38 -96.5t-26.5 -84t-96.5 -38.5zM225 529l-1 31q43 15 59.5 35.5t6.5 53.5q-12 -3 -23 -1.5t-17 13.5q-28 40 -16 80q11 35 44 25q15 -4 32 -18
q33 -48 38 -96.5t-26.5 -84t-96.5 -38.5z" />
    <glyph glyph-name="quotedblbase" unicode="&#x201e;" horiz-adv-x="404" 
d="M42 -117l-1 31q43 15 59.5 35.5t6.5 53.5q-12 -3 -23 -1.5t-17 13.5q-28 40 -16 80q11 35 44 25q15 -4 32 -18q33 -48 38 -96.5t-26.5 -84t-96.5 -38.5zM228 -123l-1 31q43 15 59.5 35.5t6.5 53.5q-12 -3 -23 -1.5t-17 13.5q-28 40 -16 80q11 35 44 25q15 -4 32 -18
q33 -48 38 -96.5t-26.5 -84t-96.5 -38.5z" />
    <glyph glyph-name="percent" horiz-adv-x="838" 
d="M625 755l52 -35q-20 -44 -212 -351.5t-216 -366.5q-13 -16 -31.5 -17t-30.5 10.5t-18.5 28t4.5 35.5q46 57 216.5 317t235.5 379zM528 236q64 75 140.5 64t120.5 -97q23 -52 5.5 -109.5t-58.5 -90.5q-33 -26 -82 -27t-84 20q-65 37 -78.5 107.5t36.5 132.5zM573 198
q-31 -37 -23 -79.5t49 -64.5q22 -13 53 -12.5t52 16.5q26 20 36.5 54.5t-3.5 65.5q-28 52 -76 58t-88 -38zM63 713q64 75 140.5 64t120.5 -97q23 -52 5.5 -109.5t-58.5 -90.5q-33 -26 -82 -27t-84 20q-65 37 -78.5 107.5t36.5 132.5zM108 675q-31 -37 -23 -79.5t49 -64.5
q22 -13 53 -12.5t52 16.5q26 20 36.5 54.5t-3.5 65.5q-28 52 -76 58t-88 -38z" />
    </font>
</defs>
</svg>
